0
SECTION
2
HEADER
9
$INSUNITS
70
4
0
ENDSEC
0
SECTION
2
TABLES
0
TABLE
2
LTYPE
0
LTYPE
72
65
70
64
2
CONTINUOUS
3
______
73
0
40
0
0
ENDTAB
0
TABLE
2
LAYER
0
ENDTAB
0
ENDSEC
0
SECTION
2
ENTITIES
0
LINE
8
0
10
82
20
36.5
11
100.8
21
36.5
0
LINE
8
0
10
100.8
20
36.5
11
100.8
21
2.5
0
LINE
8
0
10
100.8
20
2.5
11
93.5200661
21
-14.4925468
0
LINE
8
0
10
93.5200661
20
-14.4925468
11
84.0200661
21
-30.9470294
0
LINE
8
0
10
84.0200661
20
-30.9470294
11
49.3538824
21
-14.5068785
0
LINE
8
0
10
49.3538824
20
-14.5068785
11
28
21
2.5
0
LINE
8
0
10
-10
20
-9.5
11
10
21
-9.5
0
LINE
8
0
10
10
20
-9.5
11
10
21
2.5
0
LINE
8
0
10
-10
20
-9.5
11
-10
21
43.5
0
LINE
8
0
10
8
20
43.5
11
-10
21
43.5
0
LINE
8
0
10
10
20
2.5
11
28
21
2.5
0
LINE
8
0
10
26
20
55.5
11
8
21
55.5
0
LINE
8
0
10
8
20
55.5
11
8
21
43.5
0
LINE
8
0
10
46
20
57.5
11
46
21
62.5
0
LINE
8
0
10
46
20
62.5
11
26
21
62.5
0
LINE
8
0
10
26
20
62.5
11
26
21
55.5
0
LINE
8
0
10
64
20
54.5
11
64
21
57.5
0
LINE
8
0
10
64
20
57.5
11
46
21
57.5
0
LINE
8
0
10
82
20
36.5
11
82
21
54.5
0
LINE
8
0
10
82
20
54.5
11
64
21
54.5
0
CIRCLE
8
0
10
13
20
49.75
40
2.5
0
CIRCLE
8
0
10
67
20
48.75
40
2.5
0
CIRCLE
8
0
10
13
20
15.75
40
2.5
0
CIRCLE
8
0
10
67
20
14.75
40
2.5
0
CIRCLE
8
0
10
77.6546851
20
-11.9721928
40
2.5
0
CIRCLE
8
0
10
13
20
49.75
40
1.5
0
CIRCLE
8
0
10
67
20
48.75
40
1.5
0
CIRCLE
8
0
10
13
20
15.75
40
1.5
0
CIRCLE
8
0
10
67
20
14.75
40
1.5
0
CIRCLE
8
0
10
77.6546851
20
-11.9721928
40
1.5
0
LINE
8
0
10
92.3286324
20
-1.1123535
11
90.334887
21
-5.6976539
0
LINE
8
0
10
90.334887
20
-5.6976539
11
97.6713676
21
-8.8876465
0
LINE
8
0
10
97.6713676
20
-8.8876465
11
99.665113
21
-4.3023461
0
LINE
8
0
10
99.665113
20
-4.3023461
11
92.3286324
21
-1.1123535
0
ENDSEC
0
EOF