0
SECTION
2
HEADER
9
$INSUNITS
70
4
0
ENDSEC
0
SECTION
2
TABLES
0
TABLE
2
LTYPE
0
LTYPE
72
65
70
64
2
CONTINUOUS
3
______
73
0
40
0
0
ENDTAB
0
TABLE
2
LAYER
0
ENDTAB
0
ENDSEC
0
SECTION
2
ENTITIES
0
LINE
8
0
10
82
20
1.5
11
82
21
54.5
0
LINE
8
0
10
82
20
1.5
11
93.5200661
21
-14.4925468
0
LINE
8
0
10
93.5200661
20
-14.4925468
11
84.0200661
21
-30.9470294
0
LINE
8
0
10
84.0200661
20
-30.9470294
11
49.3538824
21
-14.5068785
0
LINE
8
0
10
49.3538824
20
-14.5068785
11
28
21
2.5
0
LINE
8
0
10
-10
20
-9.5
11
10
21
-9.5
0
LINE
8
0
10
10
20
-9.5
11
10
21
2.5
0
LINE
8
0
10
-10
20
-9.5
11
-10
21
43.5
0
LINE
8
0
10
8
20
43.5
11
-10
21
43.5
0
LINE
8
0
10
10
20
2.5
11
28
21
2.5
0
LINE
8
0
10
26
20
55.5
11
8
21
55.5
0
LINE
8
0
10
8
20
55.5
11
8
21
43.5
0
LINE
8
0
10
46
20
57.5
11
46
21
62.5
0
LINE
8
0
10
46
20
62.5
11
26
21
62.5
0
LINE
8
0
10
26
20
62.5
11
26
21
55.5
0
LINE
8
0
10
64
20
54.5
11
64
21
57.5
0
LINE
8
0
10
64
20
57.5
11
46
21
57.5
0
LINE
8
0
10
82
20
54.5
11
64
21
54.5
0
CIRCLE
8
0
10
12.6
20
40.9
40
2.5
0
CIRCLE
8
0
10
59.4
20
43.75
40
2.5
0
CIRCLE
8
0
10
12.6
20
6.9
40
2.5
0
CIRCLE
8
0
10
59.4
20
8.9
40
2.5
0
CIRCLE
8
0
10
69.2943651
20
-15.2731362
40
2.5
0
CIRCLE
8
0
10
12.6
20
40.9
40
1.5
0
CIRCLE
8
0
10
59.4
20
43.75
40
1.5
0
CIRCLE
8
0
10
12.6
20
6.9
40
1.5
0
CIRCLE
8
0
10
59.4
20
8.9
40
1.5
0
CIRCLE
8
0
10
69.2943651
20
-15.2731362
40
1.5
0
LINE
8
0
10
78.2944689
20
-4.3285985
11
81.2333952
21
-8.3736835
0
LINE
8
0
10
81.2333952
20
-8.3736835
11
87.7055311
21
-3.6714015
0
LINE
8
0
10
87.7055311
20
-3.6714015
11
84.7666048
21
0.3736835
0
LINE
8
0
10
84.7666048
20
0.3736835
11
78.2944689
21
-4.3285985
0
LINE
8
0
10
79.5
20
28
11
84.5
21
28
0
LINE
8
0
10
84.5
20
28
11
84.5
21
36
0
LINE
8
0
10
84.5
20
36
11
79.5
21
36
0
LINE
8
0
10
79.5
20
36
11
79.5
21
28
0
ENDSEC
0
EOF