0
SECTION
2
HEADER
9
$INSUNITS
70
4
0
ENDSEC
0
SECTION
2
TABLES
0
TABLE
2
LTYPE
0
LTYPE
72
65
70
64
2
CONTINUOUS
3
______
73
0
40
0
0
ENDTAB
0
TABLE
2
LAYER
0
ENDTAB
0
ENDSEC
0
SECTION
2
ENTITIES
0
LINE
8
0
10
-10
20
9.5
11
81
21
36.5
0
LINE
8
0
10
81
20
36.5
11
100.8
21
36.5
0
LINE
8
0
10
100.8
20
36.5
11
100.8
21
2.5
0
LINE
8
0
10
100.8
20
2.5
11
93.5200661
21
-14.4925468
0
LINE
8
0
10
93.5200661
20
-14.4925468
11
84.0200661
21
-30.9470294
0
LINE
8
0
10
84.0200661
20
-30.9470294
11
49.3538824
21
-14.5068785
0
LINE
8
0
10
49.3538824
20
-14.5068785
11
10
21
-9.5
0
LINE
8
0
10
10
20
-9.5
11
-10
21
9.5
0
ENDSEC
0
EOF