0
SECTION
2
HEADER
9
$INSUNITS
70
4
0
ENDSEC
0
SECTION
2
TABLES
0
TABLE
2
LTYPE
0
LTYPE
72
65
70
64
2
CONTINUOUS
3
______
73
0
40
0
0
ENDTAB
0
TABLE
2
LAYER
0
ENDTAB
0
ENDSEC
0
SECTION
2
ENTITIES
0
LINE
8
0
10
84
20
36.5
11
98.8
21
36.5
0
LINE
8
0
10
100.8
20
34.5
11
100.8
21
2.9103813
0
LINE
8
0
10
100.6383913
20
2.1227791
11
93.566919
21
-14.3831846
0
LINE
8
0
10
93.4605785
20
-14.5955824
11
84.9423914
21
-29.3495151
0
LINE
8
0
10
82.3533453
20
-30.1566008
11
49.6420634
21
-14.6435459
0
LINE
8
0
10
49.0374874
20
-14.4666245
11
10.1257028
21
-9.5159928
0
LINE
8
0
10
-8
20
-9.5
11
9.8732834
21
-9.5
0
LINE
8
0
10
-10
20
-7.5
11
-10
21
58.5
0
LINE
8
0
10
6
20
60.5
11
-8
21
60.5
0
LINE
8
0
10
24
20
72.5
11
10
21
72.5
0
LINE
8
0
10
8
20
70.5
11
8
21
62.5
0
LINE
8
0
10
46
20
76.5
11
46
21
77.5
0
LINE
8
0
10
44
20
79.5
11
28
21
79.5
0
LINE
8
0
10
26
20
77.5
11
26
21
74.5
0
LINE
8
0
10
64
20
71.5
11
64
21
72.5
0
LINE
8
0
10
62
20
74.5
11
48
21
74.5
0
LINE
8
0
10
82
20
38.5
11
82
21
69.5
0
LINE
8
0
10
80
20
71.5
11
64
21
71.5
0
ARC
8
0
10
98.8
20
34.5
40
2
50
0
51
90
0
ARC
8
0
10
98.8
20
2.9103813
40
2
50
336.8087778
51
0
0
ARC
8
0
10
91.7285277
20
-13.5955824
40
2
50
329.9999999
51
336.8087778
0
ARC
8
0
10
83.2103406
20
-28.3495151
40
2
50
244.6277426
51
329.9999999
0
ARC
8
0
10
48.785068
20
-16.4506317
40
2
50
64.6277426
51
82.7493803
0
ARC
8
0
10
9.8732834
20
-11.5
40
2
50
82.7493803
51
90
0
ARC
8
0
10
-8
20
-7.5
40
2
50
180
51
270
0
ARC
8
0
10
-8
20
58.5
40
2
50
90
51
180
0
ARC
8
0
10
6
20
62.5
40
2
50
270
51
0
0
ARC
8
0
10
10
20
70.5
40
2
50
90
51
180
0
ARC
8
0
10
24
20
74.5
40
2
50
270
51
0
0
ARC
8
0
10
28
20
77.5
40
2
50
90
51
180
0
ARC
8
0
10
44
20
77.5
40
2
50
0
51
90
0
ARC
8
0
10
48
20
76.5
40
2
50
180
51
270
0
ARC
8
0
10
62
20
72.5
40
2
50
0
51
90
0
ARC
8
0
10
80
20
69.5
40
2
50
0
51
90
0
ARC
8
0
10
84
20
38.5
40
2
50
180
51
270
0
LINE
8
0
10
-8.75
20
-8.25
11
8.75
21
-8.25
0
LINE
8
0
10
8.75
20
-8.25
11
8.75
21
8.25
0
LINE
8
0
10
8.75
20
8.25
11
-8.75
21
8.25
0
LINE
8
0
10
-8.75
20
8.25
11
-8.75
21
-8.25
0
LINE
8
0
10
-8.75
20
8.75
11
8.75
21
8.75
0
LINE
8
0
10
8.75
20
8.75
11
8.75
21
25.25
0
LINE
8
0
10
8.75
20
25.25
11
-8.75
21
25.25
0
LINE
8
0
10
-8.75
20
25.25
11
-8.75
21
8.75
0
LINE
8
0
10
-8.75
20
25.75
11
8.75
21
25.75
0
LINE
8
0
10
8.75
20
25.75
11
8.75
21
42.25
0
LINE
8
0
10
8.75
20
42.25
11
-8.75
21
42.25
0
LINE
8
0
10
-8.75
20
42.25
11
-8.75
21
25.75
0
LINE
8
0
10
-8.75
20
42.75
11
8.75
21
42.75
0
LINE
8
0
10
8.75
20
42.75
11
8.75
21
59.25
0
LINE
8
0
10
8.75
20
59.25
11
-8.75
21
59.25
0
LINE
8
0
10
-8.75
20
59.25
11
-8.75
21
42.75
0
LINE
8
0
10
9.25
20
3.75
11
26.75
21
3.75
0
LINE
8
0
10
26.75
20
3.75
11
26.75
21
20.25
0
LINE
8
0
10
26.75
20
20.25
11
9.25
21
20.25
0
LINE
8
0
10
9.25
20
20.25
11
9.25
21
3.75
0
LINE
8
0
10
9.25
20
20.75
11
26.75
21
20.75
0
LINE
8
0
10
26.75
20
20.75
11
26.75
21
37.25
0
LINE
8
0
10
26.75
20
37.25
11
9.25
21
37.25
0
LINE
8
0
10
9.25
20
37.25
11
9.25
21
20.75
0
LINE
8
0
10
9.25
20
37.75
11
26.75
21
37.75
0
LINE
8
0
10
26.75
20
37.75
11
26.75
21
54.25
0
LINE
8
0
10
26.75
20
54.25
11
9.25
21
54.25
0
LINE
8
0
10
9.25
20
54.25
11
9.25
21
37.75
0
LINE
8
0
10
9.25
20
54.75
11
26.75
21
54.75
0
LINE
8
0
10
26.75
20
54.75
11
26.75
21
71.25
0
LINE
8
0
10
26.75
20
71.25
11
9.25
21
71.25
0
LINE
8
0
10
9.25
20
71.25
11
9.25
21
54.75
0
LINE
8
0
10
27.25
20
10.75
11
44.75
21
10.75
0
LINE
8
0
10
44.75
20
10.75
11
44.75
21
27.25
0
LINE
8
0
10
44.75
20
27.25
11
27.25
21
27.25
0
LINE
8
0
10
27.25
20
27.25
11
27.25
21
10.75
0
LINE
8
0
10
27.25
20
27.75
11
44.75
21
27.75
0
LINE
8
0
10
44.75
20
27.75
11
44.75
21
44.25
0
LINE
8
0
10
44.75
20
44.25
11
27.25
21
44.25
0
LINE
8
0
10
27.25
20
44.25
11
27.25
21
27.75
0
LINE
8
0
10
27.25
20
44.75
11
44.75
21
44.75
0
LINE
8
0
10
44.75
20
44.75
11
44.75
21
61.25
0
LINE
8
0
10
44.75
20
61.25
11
27.25
21
61.25
0
LINE
8
0
10
27.25
20
61.25
11
27.25
21
44.75
0
LINE
8
0
10
27.25
20
61.75
11
44.75
21
61.75
0
LINE
8
0
10
44.75
20
61.75
11
44.75
21
78.25
0
LINE
8
0
10
44.75
20
78.25
11
27.25
21
78.25
0
LINE
8
0
10
27.25
20
78.25
11
27.25
21
61.75
0
LINE
8
0
10
45.25
20
5.75
11
62.75
21
5.75
0
LINE
8
0
10
62.75
20
5.75
11
62.75
21
22.25
0
LINE
8
0
10
62.75
20
22.25
11
45.25
21
22.25
0
LINE
8
0
10
45.25
20
22.25
11
45.25
21
5.75
0
LINE
8
0
10
45.25
20
22.75
11
62.75
21
22.75
0
LINE
8
0
10
62.75
20
22.75
11
62.75
21
39.25
0
LINE
8
0
10
62.75
20
39.25
11
45.25
21
39.25
0
LINE
8
0
10
45.25
20
39.25
11
45.25
21
22.75
0
LINE
8
0
10
45.25
20
39.75
11
62.75
21
39.75
0
LINE
8
0
10
62.75
20
39.75
11
62.75
21
56.25
0
LINE
8
0
10
62.75
20
56.25
11
45.25
21
56.25
0
LINE
8
0
10
45.25
20
56.25
11
45.25
21
39.75
0
LINE
8
0
10
45.25
20
56.75
11
62.75
21
56.75
0
LINE
8
0
10
62.75
20
56.75
11
62.75
21
73.25
0
LINE
8
0
10
62.75
20
73.25
11
45.25
21
73.25
0
LINE
8
0
10
45.25
20
73.25
11
45.25
21
56.75
0
LINE
8
0
10
63.25
20
2.75
11
80.75
21
2.75
0
LINE
8
0
10
80.75
20
2.75
11
80.75
21
19.25
0
LINE
8
0
10
80.75
20
19.25
11
63.25
21
19.25
0
LINE
8
0
10
63.25
20
19.25
11
63.25
21
2.75
0
LINE
8
0
10
63.25
20
19.75
11
80.75
21
19.75
0
LINE
8
0
10
80.75
20
19.75
11
80.75
21
36.25
0
LINE
8
0
10
80.75
20
36.25
11
63.25
21
36.25
0
LINE
8
0
10
63.25
20
36.25
11
63.25
21
19.75
0
LINE
8
0
10
63.25
20
36.75
11
80.75
21
36.75
0
LINE
8
0
10
80.75
20
36.75
11
80.75
21
53.25
0
LINE
8
0
10
80.75
20
53.25
11
63.25
21
53.25
0
LINE
8
0
10
63.25
20
53.25
11
63.25
21
36.75
0
LINE
8
0
10
63.25
20
53.75
11
80.75
21
53.75
0
LINE
8
0
10
80.75
20
53.75
11
80.75
21
70.25
0
LINE
8
0
10
80.75
20
70.25
11
63.25
21
70.25
0
LINE
8
0
10
63.25
20
70.25
11
63.25
21
53.75
0
LINE
8
0
10
50.9560234
20
-13.7597879
11
67.4006442
21
-19.7451404
0
LINE
8
0
10
67.4006442
20
-19.7451404
11
73.0439766
21
-4.2402121
0
LINE
8
0
10
73.0439766
20
-4.2402121
11
56.5993558
21
1.7451404
0
LINE
8
0
10
56.5993558
20
1.7451404
11
50.9560234
21
-13.7597879
0
LINE
8
0
10
68.4070898
20
-20.4894977
11
83.5625344
21
-29.2394977
0
LINE
8
0
10
83.5625344
20
-29.2394977
11
91.8125344
21
-14.9500785
0
LINE
8
0
10
91.8125344
20
-14.9500785
11
76.6570898
21
-6.2000785
0
LINE
8
0
10
76.6570898
20
-6.2000785
11
68.4070898
21
-20.4894977
0
ENDSEC
0
EOF