0
SECTION
2
HEADER
9
$INSUNITS
70
4
0
ENDSEC
0
SECTION
2
TABLES
0
TABLE
2
LTYPE
0
LTYPE
72
65
70
64
2
CONTINUOUS
3
______
73
0
40
0
0
ENDTAB
0
TABLE
2
LAYER
0
ENDTAB
0
ENDSEC
0
SECTION
2
ENTITIES
0
LINE
8
0
10
-10
20
-9.5
11
10
21
-9.5
0
LINE
8
0
10
10
20
-9.5
11
10
21
2.5
0
LINE
8
0
10
-10
20
-9.5
11
-10
21
60.5
0
LINE
8
0
10
8
20
60.5
11
-10
21
60.5
0
LINE
8
0
10
10
20
2.5
11
28
21
2.5
0
LINE
8
0
10
28
20
2.5
11
28
21
9.5
0
LINE
8
0
10
26
20
72.5
11
8
21
72.5
0
LINE
8
0
10
8
20
72.5
11
8
21
60.5
0
LINE
8
0
10
28
20
9.5
11
44
21
9.5
0
LINE
8
0
10
46
20
74.5
11
46
21
79.5
0
LINE
8
0
10
46
20
79.5
11
26
21
79.5
0
LINE
8
0
10
26
20
79.5
11
26
21
72.5
0
LINE
8
0
10
44
20
4.5
11
62
21
4.5
0
LINE
8
0
10
44
20
9.5
11
44
21
4.5
0
LINE
8
0
10
64
20
71.5
11
64
21
74.5
0
LINE
8
0
10
64
20
74.5
11
46
21
74.5
0
LINE
8
0
10
62
20
1.5
11
82
21
1.5
0
LINE
8
0
10
82
20
1.5
11
82
21
71.5
0
LINE
8
0
10
62
20
4.5
11
62
21
1.5
0
LINE
8
0
10
82
20
71.5
11
64
21
71.5
0
LINE
8
0
10
49.3538824
20
-14.5068785
11
66.7600734
21
-20.8422139
0
LINE
8
0
10
71.0121147
20
-13.4774623
11
74.6461176
21
-3.4931215
0
LINE
8
0
10
74.6461176
20
-3.4931215
11
55.8522652
21
3.3472813
0
LINE
8
0
10
55.8522652
20
3.3472813
11
49.3538824
21
-14.5068785
0
LINE
8
0
10
66.6995581
20
-20.9470294
11
84.0200661
21
-30.9470294
0
LINE
8
0
10
84.0200661
20
-30.9470294
11
93.5200661
21
-14.4925468
0
LINE
8
0
10
93.5200661
20
-14.4925468
11
76.1995581
21
-4.4925468
0
LINE
8
0
10
76.1995581
20
-4.4925468
11
71.0121147
21
-13.4774623
0
LINE
8
0
10
66.7600734
20
-20.8422139
11
66.6995581
21
-20.9470294
0
ENDSEC
0
EOF